# xmcd CD database file
#
# Track frame offsets:
#	150
#	32896
#	62193
#	93469
#	118305
#	150918
#	175428
#	206641
#	240126
#	267503
#
# Disc length: 3963 seconds
#
# Revision: 0
# Processed by: cddbd v1.5.1PL0 Copyright (c) Steve Scherf et al.
# Submitted via: CDex 1.51
#
DISCID=880f790a
DTITLE=HammondEx - HexaBlue
DYEAR=2003
DGENRE=Blues
TTITLE0=HexaBlue
TTITLE1=Springtime In My Heart
TTITLE2=First Burst
TTITLE3=Dear Mr. Don
TTITLE4=Sparrow Morning
TTITLE5=ExBlues
TTITLE6=No Room For Squares
TTITLE7=Stephanie
TTITLE8=Lambamtulorium I
TTITLE9=ExChange
EXTD=YEAR: 2003
EXTT0=
EXTT1=
EXTT2=
EXTT3=
EXTT4=
EXTT5=
EXTT6=
EXTT7=
EXTT8=
EXTT9=
PLAYORDER=
